<svg version="1.1" id="Layer_1" xmlns="http://www.w3.org/2000/svg" xmlns:xlink="http://www.w3.org/1999/xlink" x="0px" y="0px" width="100%" viewBox="0 0 1024 1024" enable-background="new 0 0 1024 1024">
  <defs>
    <linearGradient id="A" x1="0%" y1="0%" x2="100%" y2="100%">
      <stop offset="0" stop-color="#87CEEB"></stop>
      <stop offset="1" stop-color="#4475a0"></stop>
    </linearGradient>
    <linearGradient id="B" x1="0%" y1="0%" x2="100%" y2="100%">
      <stop offset="0" stop-color="#9b59b6"></stop>
      <stop offset="1" stop-color="#6c3483"></stop>
    </linearGradient>
  </defs>
  <ellipse style="stroke: rgb(0, 0, 0); alignment-baseline: inherit; paint-order: stroke; stroke-width: 0px; stroke-opacity: 0; fill: rgb(255, 255, 255);" cx="511.478" cy="514.522" rx="486.62" ry="486.62"></ellipse>
  <path fill="#F2F2F2" opacity="1.000000" stroke="none" d="M 751.66 1230.98 C 752.811 1231.9 753.436 1232.9 754.06 1233.9 C 753.385 1234.21 752.711 1234.5 752.035 1234.82 C 751.734 1233.57 751.433 1232.31 751.66 1230.98 Z" style=""></path>
  <path style="fill: rgb(237, 207, 81); stroke: rgb(0, 0, 0);" d="M 49.809 662.07 C 49.809 662.07 110.526 781.703 110.526 782.728 C 110.526 783.753 222.254 905.732 222.254 905.732 L 351.407 972.358 C 350.361 977.59 496.329 1000.12 522.587 993.884 C 552.925 994.088 703.25 964.243 696.84 962.108 C 816.09 919.344 932.41 769.461 958.22 703.801 C 958.22 703.801 964.37 682.276 966.42 681.251 C 968.47 680.226 49.809 660.02 49.809 662.07 Z"></path>
  <path style="fill: rgb(237, 207, 81); alignment-baseline: initial;" d="M 34.674 594.123 L 994.1 593.098 L 961.299 701.751 L 79.624 720.239 L 34.674 594.123 Z"></path>
  <path fill="url(#A)" opacity="1.000000" stroke="none" d="M 892.943 224.255 C 943.502 289.075 974.872 361.766 985.677 443.627 C 995.521 518.284 987.911 591.136 967.602 663.116 C 966.946 665.46 965.548 667.597 963.734 669.415 C 951.393 649.328 939.829 629.66 927.617 608.853 C 915.865 630.048 905.128 649.433 893.616 670.204 C 880.034 644.982 867.363 621.461 854.049 596.735 C 842.421 621.266 831.33 644.662 819.667 669.285 C 806.556 650.732 794.389 633.498 780.588 613.967 C 763.085 632.97 746.407 651.057 728.349 670.65 C 718.941 646.134 710.627 624.438 701.657 601.043 C 685.737 624.835 670.993 646.86 655.326 670.28 C 644.689 647.304 634.675 625.686 624.021 602.703 C 608.302 624.733 593.578 645.39 578.295 666.808 C 564.613 645.163 551.368 624.21 537.314 601.985 C 526.51 625.108 516.447 646.631 505.692 669.648 C 488.981 644.988 473.294 621.855 457.003 597.828 C 448.017 621.99 439.299 645.405 430.042 670.31 C 413.28 650.493 397.713 632.075 381.805 613.257 C 368.519 631.653 355.937 649.072 342.656 667.464 C 331.363 643.505 320.626 620.722 309.384 596.868 C 296.464 620.774 284.416 643.067 271.519 666.932 C 259.241 649.161 247.919 632.778 237.606 617.857 C 219.201 634.446 201.194 650.676 182.981 667.092 C 174.213 646.444 164.8 624.265 154.997 601.173 C 141.231 625.133 128.195 647.829 114.682 671.348 C 103.047 648.869 92.194 627.897 80.484 605.278 C 78.019 609.888 76.627 612.529 75.201 615.152 C 68.284 627.892 61.357 640.628 54.436 653.364 C 49.555 632.996 43.312 612.843 40.046 592.22 C 30 528.796 30.756 465.513 47.119 402.236 C 50.103 401.815 52.056 402.079 54.01 402.082 C 123.482 402.209 192.957 402.318 262.43 402.389 C 263.646 402.391 264.864 401.906 266.162 401.633 C 258.3 379.032 237.017 369.797 211.788 377.54 C 206.679 364.918 201.266 352.202 187.693 345.852 C 173.699 339.303 160.524 342.477 147.433 350.311 C 138.056 316.531 118.478 297.405 82.649 299.712 C 97.18 270.697 114.778 243.654 135.106 218.387 C 141.219 210.787 147.635 203.425 154.986 196.12 C 157.438 196.465 158.819 196.796 160.199 196.798 C 220.127 196.888 280.055 196.952 339.983 196.976 C 341.202 196.976 342.422 196.453 345.618 195.719 C 341.357 190.65 338.801 184.82 334.613 183.2 C 325.645 179.729 315.834 178.432 304.703 175.864 C 303.39 169.555 300.761 159.999 290.629 158.056 C 282.243 156.447 273.301 157.727 263.664 157.727 C 260.965 142.053 249.708 131.381 237.069 121.742 C 248.698 114.041 259.942 105.675 272.015 98.75 C 338.49 60.633 409.947 39.132 486.607 35.151 C 598.608 29.34 699.469 61.093 790.855 124.992 C 794.743 127.71 798.209 131.016 801.811 135.11 C 787.775 144.717 782.692 158.82 778.552 174.53 C 766.232 167.689 753.896 166.976 741.055 171.397 C 726.918 176.261 722.072 187.642 719.9 200.78 C 685.702 198.166 669.462 205.78 668.216 225.395 C 671.01 225.395 673.771 225.406 676.514 225.393 C 740.618 225.099 804.721 224.806 868.827 224.498 C 876.854 224.458 884.9 224.337 892.943 224.255 M 672.576 403.327 C 668.435 409.079 664.279 414.832 659.818 421.024 C 639.354 419.821 632.067 422.965 630.67 433.841 C 700.294 433.841 769.952 433.841 839.981 433.841 C 835.84 422.614 826.853 416.888 815.291 418.566 C 810.292 419.29 808.475 417.893 806.507 413.667 C 801.609 403.177 790.366 398.236 779.225 401.046 C 776.364 401.771 773.486 402.542 770.12 403.425 C 764.684 385.474 753.577 375.38 735.065 375.521 C 715.373 375.667 703.862 386.651 699.351 402.711 C 689.96 402.711 681.849 402.711 672.576 403.327 Z" style=""></path>
  <path fill="#EDCF51" opacity="1.000000" stroke="none" d="M 634.819 728.498 C 632.023 729.088 164.048 716.099 79.066 716.107 C 75.608 708.31 67.637 694.951 64.583 685.985 C 68.266 684.41 71.532 683.796 74.822 683.636 C 84.025 683.191 92.921 681.036 102.148 680.798 C 102.165 680.893 103.068 684.766 103.903 685.611 C 107.12 691.868 109.92 697.71 113.28 704.723 C 118.397 696.837 122.685 690.228 127.748 683.618 C 143.201 683.578 158.511 681.958 173.608 682.333 C 176.16 687.594 177.663 694.024 179.969 699.261 C 185.572 693.312 190.108 688.499 195.396 683.681 C 219.025 683.644 242.534 682.98 265.878 683.274 C 268.916 687.358 270.855 691.747 273.688 695.884 C 276.526 691.275 278.932 687.372 282.143 683.509 C 299.223 683.574 315.494 682.334 332.086 682.873 C 334.912 688.208 337.418 694.292 340.481 700.184 C 345.111 693.813 348.823 688.701 353.288 683.597 C 371.143 683.549 372.513 681.589 367.456 664.418 C 367.297 663.88 367.201 663.325 367.243 662.24 C 372.536 654.4 377.662 647.1 383.147 639.289 C 400.45 659.794 417.325 679.792 435.114 700.871 C 444.009 677.48 452.455 655.267 461.1 632.534 C 477.628 656.372 493.273 678.94 509.401 702.204 C 519.699 678.991 529.257 657.445 539.508 634.339 C 553.24 655.793 565.819 675.446 578.515 695.283 C 592.719 674.741 606.492 654.823 621.432 633.215 C 631.746 656.675 641.18 678.128 650.401 700.303 C 644.719 701.961 640.244 727.352 634.819 728.498 Z" style=""></path>
  <path fill="#E9B537" opacity="1.000000" stroke="none" d="M 756.879 925.876 C 633.792 925.97 511.276 925.994 388.759 925.836 C 384.659 925.829 377.612 924.851 377.025 922.84 C 375.372 917.185 376.042 910.718 376.675 904.663 C 376.779 903.671 381.326 902.512 383.826 902.497 C 409.618 902.341 435.412 902.406 461.205 902.407 C 562.695 902.413 664.185 902.358 765.674 902.557 C 772.491 902.57 779.304 904.509 786.495 906.178 C 777.064 913.127 767.257 919.45 756.879 925.876 Z" style=""></path>
  <path fill="#E9B537" opacity="1.000000" stroke="none" d="M 906.796 786.026 C 815.865 786.328 725.4 786.323 634.146 786.352 C 632.609 786.372 631.862 786.359 629.924 786.332 C 627.472 786.339 626.211 786.357 624.95 786.377 C 610.671 786.34 596.365 785.775 582.123 786.469 C 573.782 786.876 572.417 783.493 572.551 776.274 C 572.677 769.447 573.2 765.803 581.899 765.85 C 652.453 766.238 723.01 766.065 793.567 766.06 C 835.004 766.056 876.442 766.049 918.669 766.045 C 915.392 772.604 911.327 779.163 906.796 786.026 Z" style=""></path>
  <path fill="#E9B537" opacity="1.000000" stroke="none" d="M 146.477 825.796 C 185.143 825.183 224.079 825.041 263.015 825.009 C 318.763 824.964 374.512 825.162 430.259 824.816 C 438.224 824.767 440.874 827.283 439.871 834.82 C 439.504 837.572 440.529 840.694 439.587 843.132 C 438.748 845.3 436.329 847.32 434.117 848.35 C 432.272 849.209 429.715 848.544 427.475 848.544 C 352.398 848.551 277.319 848.463 202.243 848.673 C 191.984 848.701 181.731 850.203 170.984 851.527 C 162.578 843.458 154.664 834.886 146.477 825.796 Z" style=""></path>
  <path fill="#E9B537" opacity="1.000000" stroke="none" d="M 650.401 700.303 C 651.662 700.322 652.712 701.062 654.791 702.239 C 657.42 703.049 659.017 703.737 660.62 703.752 C 725.156 704.356 789.694 704.965 854.233 705.37 C 863.114 705.425 872.003 704.395 880.891 703.915 C 884.257 703.732 887.629 703.679 890.998 703.569 C 891.967 703.611 892.935 703.655 895.252 703.701 C 914.857 704.303 933.113 704.901 951.367 705.498 C 948.402 712.075 945.436 718.652 942.019 725.61 C 938.133 725.334 934.698 724.106 931.264 724.103 C 832.605 723.995 733.95 724.013 635.295 724.004 C 626.008 724.004 620.745 714.903 625.841 706.792 C 627.033 704.893 630.998 704.487 633.794 703.897 C 639.219 702.751 644.719 701.961 650.401 700.303 Z" style=""></path>
  <path fill="#E9B537" opacity="1.000000" stroke="none" d="M 763.842 853.568 C 785.785 853.573 806.943 853.446 828.095 853.707 C 833.862 853.778 839.613 855.011 846.18 855.991 C 839.85 863.24 832.713 870.205 825.099 877.399 C 820.269 876.907 815.917 875.569 811.563 875.561 C 742.107 875.425 672.651 875.523 603.197 875.381 C 593.176 875.361 583.157 873.927 573.14 873.943 C 561.785 873.963 567.079 865.708 566.1 860.726 C 564.858 854.413 568.66 853.496 574.011 853.506 C 637.026 853.63 700.039 853.583 763.842 853.568 Z" style=""></path>
  <path fill="#E9B537" opacity="1.000000" stroke="none" d="M 74.629 711.145 C 159.537 710.538 244.519 710.548 329.503 710.482 C 334.887 710.478 339.194 710.108 339.077 718.051 C 338.964 725.7 336.064 727.472 329.028 727.459 C 247.413 727.309 165.795 727.4 83.355 727.465 C 79.921 722.25 77.311 716.997 74.629 711.145 Z" style=""></path>
  <path fill="#EECE50" opacity="1.000000" stroke="none" d="M 951.751 705.027 C 933.113 704.901 914.857 704.303 895.737 703.653 C 898.393 696.664 901.912 689.725 906.579 682.355 C 921.835 681.305 935.943 680.688 950.047 680.071 C 952.246 683.187 954.453 686.301 957.01 689.909 C 955.62 695.119 953.873 699.838 951.751 705.027 Z" style=""></path>
  <path fill="#E9B537" opacity="1.000000" stroke="none" d="M 92.457 663.33 C 95.696 669.387 98.936 675.442 102.309 682.048 C 93.237 682.933 84.025 683.191 74.822 683.636 C 71.532 683.796 68.266 684.41 64.481 685.389 C 63.007 683.371 62.039 680.78 61.02 677.593 C 63.36 672.658 65.749 668.318 69.357 663.654 C 77.868 663.33 85.163 663.33 92.457 663.33 Z" style=""></path>
  <path fill="#E9B537" opacity="1.000000" stroke="none" d="M 195.396 683.681 C 200.807 677.015 206.969 670.346 214.131 663.947 C 225.782 664.44 236.433 664.704 247.087 664.803 C 247.988 664.81 248.898 663.709 249.805 663.123 C 254.697 669.577 259.588 676.031 264.63 683.032 C 241.902 683.612 219.025 683.644 195.396 683.681 Z" style=""></path>
  <path fill="#E9B537" opacity="1.000000" stroke="none" d="M 282.143 683.509 C 284.6 677.067 287.864 670.664 292.291 663.832 C 300.395 663.896 307.332 664.659 314.279 664.751 C 317.051 664.787 319.843 663.338 322.626 662.564 C 325.621 669.189 328.616 675.815 331.688 683.032 C 315.494 683.599 299.223 683.574 282.143 683.509 Z" style=""></path>
  <path fill="#E9B537" opacity="1.000000" stroke="none" d="M 164.281 663.229 C 166.992 669.565 169.705 675.9 172.487 682.868 C 157.879 683.539 143.201 683.578 127.748 683.618 C 130.865 676.234 134.757 668.848 139.521 661.651 C 148.357 662.301 156.318 662.766 164.281 663.229 Z" style=""></path>
  <path fill="#E9B537" opacity="1.000000" stroke="none" d="M 353.288 683.597 C 357.069 676.875 361.602 670.159 366.607 663.111 C 367.201 663.325 367.297 663.88 367.456 664.418 C 372.513 681.589 371.143 683.549 353.288 683.597 Z" style=""></path>
  <path fill="#EECE50" opacity="1.000000" stroke="none" d="M 625.05 786.913 C 626.211 786.357 627.472 786.339 629.363 786.353 C 628.379 786.74 626.765 787.095 625.05 786.913 Z" style=""></path>
  <path fill="#E9B537" opacity="1.000000" stroke="none" d="M 102.343 683.439 C 102.785 683.43 103.119 683.882 103.468 684.767 C 103.068 684.766 102.65 684.332 102.343 683.439 Z" style=""></path>
  <path fill="#EDCF51" opacity="1.000000" stroke="none" d="M 890.957 702.943 C 887.629 703.679 884.257 703.732 880.891 703.915 C 872.003 704.395 863.114 705.425 854.233 705.37 C 789.694 704.965 725.156 704.356 660.62 703.752 C 659.017 703.737 657.42 703.049 655.314 702.125 C 668.87 679.54 682.932 657.507 698.156 633.655 C 706.232 656.144 713.534 676.481 720.985 697.231 C 726.46 691.872 731.393 687.045 737.576 682.024 C 762.128 681.27 785.428 680.709 808.727 680.149 C 813.414 686.182 818.101 692.216 823.131 698.694 C 825.919 692.983 828.444 687.806 832.202 682.284 C 849.071 681.386 864.709 680.834 880.347 680.28 C 883.87 687.627 887.394 694.971 890.957 702.943 Z" style=""></path>
  <path fill="#E9B537" opacity="1.000000" stroke="none" d="M 880.232 679.719 C 864.709 680.834 849.071 681.386 832.658 681.93 C 839.611 665.651 847.338 649.38 855.499 632.194 C 864.153 648.703 872.134 663.93 880.232 679.719 Z" style=""></path>
  <path fill="#E9B537" opacity="1.000000" stroke="none" d="M 808.549 679.59 C 785.428 680.709 762.128 681.27 738.073 681.782 C 743.206 675.754 749.094 669.772 756.299 663.595 C 770.567 663.413 783.519 663.427 796.472 663.442 C 800.438 668.639 804.404 673.836 808.549 679.59 Z" style=""></path>
  <path fill="#E9B537" opacity="1.000000" stroke="none" d="M 949.97 679.47 C 935.943 680.688 921.835 681.305 906.975 681.918 C 909.683 675.288 913.146 668.663 917.554 662.207 C 925.98 662.704 933.454 663.03 940.937 663.358 C 943.919 668.528 946.911 673.699 949.97 679.47 Z" style=""></path>
  <path fill="#EECE50" opacity="1.000000" stroke="none" d="M 322.477 661.992 C 319.843 663.338 317.051 664.787 314.279 664.751 C 307.332 664.659 300.395 663.896 292.69 663.398 C 297.043 653.292 302.159 643.191 308.299 631.072 C 313.54 642.407 317.935 651.912 322.477 661.992 Z" style=""></path>
  <path fill="#EECE50" opacity="1.000000" stroke="none" d="M 796.318 662.898 C 783.519 663.427 770.567 663.413 756.811 663.379 C 763.399 655.467 770.792 647.574 778.712 639.118 C 784.837 647.275 790.5 654.813 796.318 662.898 Z" style=""></path>
  <path fill="#EDCF51" opacity="1.000000" stroke="none" d="M 249.664 662.569 C 248.898 663.709 247.988 664.81 247.087 664.803 C 236.433 664.704 225.782 664.44 214.648 663.72 C 220.592 655.999 227.019 648.776 234.302 640.595 C 239.682 648.168 244.602 655.092 249.664 662.569 Z" style=""></path>
  <path fill="#EECE50" opacity="1.000000" stroke="none" d="M 163.961 662.681 C 156.318 662.766 148.357 662.301 139.905 661.195 C 143.542 653.015 147.667 645.477 152.775 636.145 C 156.919 646.053 160.281 654.093 163.961 662.681 Z" style=""></path>
  <path fill="#EECE50" opacity="1.000000" stroke="none" d="M 92.288 662.803 C 85.163 663.33 77.868 663.33 69.754 663.268 C 72.433 655.989 75.932 648.773 80.214 639.946 C 84.723 648.404 88.422 655.34 92.288 662.803 Z" style=""></path>
  <path fill="#EECE50" opacity="1.000000" stroke="none" d="M 940.792 662.816 C 933.454 663.03 925.98 662.704 918.009 661.84 C 920.547 655.035 923.577 648.767 927.48 640.701 C 932.389 648.743 936.522 655.507 940.792 662.816 Z" style=""></path>
  <ellipse style="stroke: rgb(255, 255, 255); fill-opacity: 0; paint-order: stroke; stroke-width: 20px;" cx="512.48" cy="514.522" rx="486.62" ry="486.62"></ellipse>
  <path d="M 514.662 708.003 C 514.337 708.978 513.201 719.047 512.226 730.253 C 511.414 741.459 509.79 756.725 508.978 764.359 C 508.004 771.992 506.704 785.796 505.892 795.216 C 505.08 804.635 504.918 812.756 505.567 813.405 C 506.055 814.217 522.295 814.542 541.459 814.217 L 576.214 813.893 L 584.822 781.411 C 585.472 777.838 584.01 773.941 579.463 765.983 C 576.052 760.136 570.693 751.691 567.282 747.306 C 564.034 742.758 557.375 735.45 552.665 730.74 C 547.793 726.193 538.049 718.722 530.903 714.175 C 523.757 709.465 517.423 705.73 516.611 705.892 C 515.961 705.892 515.149 706.866 514.662 707.841 L 514.662 708.003 Z" fill="#4e207a" style="stroke-width: 1;"></path>
  <path d="M 487.865 358.016 L 457.495 419.244 C 455.059 423.954 453.76 428.663 454.409 430.612 C 454.896 432.399 459.606 438.408 465.128 444.092 C 470.488 449.614 475.36 454.161 476.172 454.161 C 476.821 454.161 484.005 447.681 487.09 439.723 C 490.176 431.928 492.737 417.295 498.097 407.063 L 517.423 369.71 C 522.783 359.478 529.441 347.46 532.365 343.237 C 535.125 338.852 539.595 336.13 541.381 335.643 C 543.168 335.156 551.853 334.143 561.76 334.792 C 574.753 335.604 583.523 337.228 594.242 340.801 C 602.2 343.4 616.167 349.084 625.099 353.307 C 634.031 357.529 643.105 363.805 647.49 366.728 C 652.037 369.489 659.32 380.44 660.944 380.44 C 662.405 380.44 665.863 367.598 669.111 362.726 C 672.522 358.179 676.095 353.794 677.232 352.982 C 678.531 352.332 679.18 351.033 678.693 350.221 C 678.206 349.409 673.009 349.409 671.06 348.272 C 668.949 347.298 664.077 343.725 660.016 340.314 C 655.956 337.066 645.075 329.27 635.655 322.937 C 626.236 316.765 614.38 310.106 609.183 308.157 C 600.575 305.072 596.84 304.747 557.05 304.747 L 514.013 304.747 L 487.865 358.016 Z" fill="#63d4f2" style="stroke-width: 1;"></path>
  <path d="M 581.571 384.817 L 820.483 384.817 L 820.483 521.903 L 581.571 521.903 L 581.571 384.817 Z" fill="#fff" stroke="#000" style="stroke-width: 1;"></path>
  <g fill="#3db1e0" transform="matrix(1.624069, 0, 0, 1.624069, 104.584946, 270.64151)" style="">
    <path fill-rule="evenodd" d="M380.4 35.2c33.1.3 33.3.3 36.7 2.7 1.9 1.3 5 4.3 6.9 6.8l6.7 8.6c1.8 2.3 7.8 10.5 13.3 18.2L459.2 93c2.8 4.1 6.3 10 7.7 13 1.3 3 2.8 7.3 3.3 9.5l2.2 12c1.2 6.3 1.5 21.5 1.8 72 .2 50 0 65.3-1 70L471 279l-2.4 9.2c-1.4 5-3.874 13.636-5.174 12.536-.9-.7.474-10.736.474-12.736.1-1.9-.3-5.1-.9-7l-2.6-10c-.9-3.6-3.3-10.3-5.3-15s-6.3-12.9-9.4-18.3c-4-6.8-5.7-10.7-5.7-13.2 0-1.9-.4-5.4-1-7.8l-2.1-10.2c-.6-3.3-2.2-8.5-3.5-11.5-1.4-3-3-6.5-3.7-7.7-.6-1.2-3.4-4.5-6.2-7.4-2.7-2.8-8.4-7.1-12.5-9.5s-8.5-4.4-9.7-4.4c-2 0-2.2.4-1.9 3.2.2 1.8 1.1 5.3 2 7.8 1.2 3.1 1.4 4.8.6 5.5-.7.7-5.4.4-14.3-.7-7.2-.9-20-2.3-43.5-4.3l-.6-5.5c-.4-3-.9-7.6-1.1-10.3-.3-2.6-.9-4.7-1.5-4.7-.5 0-1.4.6-2 1.2-.5.7-2.6 3.8-4.6 6.8s-4.2 6.7-5 8.3c-.8 1.5-3.1 4.6-5.1 6.8-2.1 2.3-5 4.8-6.5 5.5-1.6.8-3.7 1.4-4.8 1.4s-4.6-2.2-7.7-4.8c-3.2-2.7-10.1-8.9-15.3-13.8-5.2-5-12.2-11.4-15.5-14.4L262 142.5c-3.6-3.3-9.6-8.7-13.5-12-3.8-3.3-9.5-8.5-12.7-11.5s-6.704-6.443-6.704-7.043S237.7 93.4 238.5 94.6c.8 1.3 2.3 0 8.1-7.3 4-4.8 10.7-12.3 15-16.7 4.4-4.3 9.3-8.5 10.9-9.4 1.6-.8 7.41-2.782 11.31-3.082 3.9-.2 15.032 2.613 17.532 3.113 2.5.6 6.958 2.269 10.458 3.169 3.4.9 8.1 2.5 10.5 3.5 2.3 1.1 6.333 2.067 8.433 2.667 2 .6 4.067 1.233 5.067.933.9-.2 2.9-1.3 4.5-2.5 1.5-1.1 2.2-2.767 2.2-3.867s-3.994-3.485-2.994-3.485c.9-.1 6.094-2.048 8.094-4.948 2.1-2.8 6.2-7.5 5.7-9-.3-1.2-2.1-4.1-4-6.5-1.8-2.3-3-4.7-2.7-5.2.4-.7 11.6-1 33.8-.8zM349 104.5c.1 17.5.4 24.2 1.3 24.7.7.4 2.6.8 4.2.8s4-.2 5.3-.5c2.1-.5 2.2-1.1 2.5-9.7l.2-9.3h14c.5 16.4.8 17.6 2.5 18.5 1.2.6 3.9.7 6.8.2l4.7-.7v-49c-10.1-.5-12.2-.1-12.7.7-.4.7-.8 5-.8 9.6V98l-15.5-.5c-.2-11.6-.5-15.8-.8-16.7-.5-1.3-1.8-1.8-4.9-1.8-2.4 0-4.9.4-5.6.8-1 .5-1.3 5.9-1.2 24.7zm48 0l.3 24.3c.1.2 2.7.3 5.7.4 4.6.1 5.6-.2 6.1-1.8.3-1.1.4-3.2.2-4.9s-.1-4 .2-5.2c.5-2.1 1-2.3 7.8-2.3 5.9.1 7.8-.4 10.6-2.2 1.9-1.3 4.4-3.6 5.5-5.1 1.5-2 2.2-4.7 2.4-9 .2-4.1-.2-7.5-1.2-9.9-.9-2.1-3.3-5-5.3-6.5-3.5-2.7-4.1-2.8-17.9-3.1-7.8-.2-14.3 0-14.4.5-.1.4-.1 11.6 0 24.8zm-90.7 2l.2 24h11l1-15c10.9-.8 15.5-1.8 17.3-2.8 1.7-.9 4.4-3.4 6-5.4 2.3-3.1 2.7-4.6 2.7-10.3 0-5.9-.3-7-3-10.2-1.6-2-4.5-4.4-6.2-5.2-2.5-1.2-6.4-1.6-15.8-1.6-9.3 0-12.7.3-12.9 1.3-.2.7-.3 12-.3 25.2z"></path>
    <path d="M319.1 97.5l-.1 5.5c8.3.1 10-.5 11.5-2 1.7-1.8 1.8-2.6 1-5.3-1-3-1.3-3.2-6.7-3.5l-5.7-.3zm91.3-5.2c-.3.6-.4 3.2-.2 5.7l.3 4.5c7.1.4 9.5 0 10.3-.7.7-.7 1.3-3 1.2-5 0-2.8-.5-4.1-2-4.8-1.1-.5-3.6-1-5.5-1-2 0-3.8.6-4.1 1.3z"></path>
  </g>
  <path d="M 538.049 336.091 C 536.587 337.066 533.989 340.314 532.202 342.913 C 530.416 345.673 523.919 357.204 517.91 368.898 L 497.881 406.073 C 493.658 414.68 491.113 422.492 491.113 423.304 C 491.113 424.116 491.925 425.253 492.737 425.74 C 493.712 426.227 499.396 420.218 505.567 412.423 C 511.739 404.465 522.458 392.447 529.441 385.301 C 536.587 378.317 544.725 371.858 547.324 370.397 C 550.375 369.188 557.213 367.274 563.384 366.786 C 569.718 366.462 576.149 367.064 580.437 367.761 C 584.725 368.458 605.285 373.77 610.969 375.232 C 616.491 376.693 624.124 379.292 628.022 380.916 C 631.758 382.702 637.638 384.698 641.015 385.788 C 644.372 386.871 657.661 391.412 660.26 389.463 C 662.696 387.677 661.64 378.155 661.64 376.693 C 661.64 374.744 657.093 371.009 649.135 366.137 C 642.152 362.077 632.082 356.392 626.723 353.794 C 621.364 351.195 609.833 346.323 601.225 343.075 C 589.857 338.852 580.762 336.741 569.556 335.604 C 560.786 334.792 550.717 333.98 547.144 333.98 C 543.571 333.98 539.348 334.955 538.049 336.091 Z" fill="#2c89cf" style="stroke-width: 1;"></path>
  <path d="M 432.189 350.884 L 420.897 373.283 C 415.05 385.138 409.585 399.593 406.986 405.439 C 404.388 411.286 400.977 420.056 399.353 424.928 C 397.729 429.8 396.43 438.57 396.43 444.417 C 396.43 450.264 397.242 457.897 398.216 461.47 C 399.191 465.043 402.439 471.539 405.362 475.924 C 408.61 480.796 427.287 498.661 452.948 521.235 L 496.797 560.375 C 497.772 561.35 507.191 570.282 517.91 580.027 L 546.169 606.012 C 551.041 610.559 566.145 624.201 571.505 628.262 C 576.864 632.322 584.187 638.22 588.557 639.305 C 596.01 641.155 599.109 645.847 610.307 645.43 C 621.675 645.006 621.373 646.794 637.481 637.431 C 642.619 634.444 656.768 627.937 656.768 624.364 C 656.768 621.765 655.307 612.995 653.683 604.875 L 649.947 586.198 C 649.46 582.95 648.648 583.275 638.903 590.746 C 633.057 595.131 617.303 601.101 612.918 601.952 C 608.454 602.819 602.849 601.14 600.251 600.003 C 596.977 598.372 593.875 596.412 590.993 594.156 C 588.395 591.882 581.249 585.711 575.402 580.189 L 551.204 558.102 C 543.733 551.443 532.202 540.724 525.381 534.39 C 518.56 528.056 506.379 517.175 498.421 510.192 L 477.309 490.703 C 473.736 487.13 468.214 482.258 465.128 479.822 C 462.042 477.548 453.597 469.752 446.289 462.769 C 438.006 454.811 431.835 447.178 429.399 441.981 C 426.638 435.972 425.826 432.074 426.475 427.364 C 426.962 423.791 429.886 415.346 433.134 408.687 L 444.015 385.138 C 446.776 378.967 451.648 368.573 454.734 362.401 L 460.256 351.033 C 453.272 349.409 433.975 350.071 432.189 350.884 Z" fill="#6e2b9e" style="stroke-width: 1;"></path>
  <path fill="url(#B)" d="M 416.406 351.358 C 412.346 351.683 400.653 353.307 390.421 355.093 C 380.189 356.88 365.085 360.128 357.127 362.401 C 349.17 364.675 341.049 367.274 339.263 368.086 C 337.476 368.898 328.719 371.545 320.274 375.605 C 311.829 379.665 307.535 381.738 303.475 384.011 C 299.415 386.447 286.156 396.02 280.796 400.08 C 275.437 404.302 266.017 412.423 260.008 418.269 C 253.837 424.116 243.93 434.835 237.921 441.981 C 231.912 449.127 224.928 457.897 222.655 461.47 C 219.244 466.667 217.229 468.453 218.853 469.915 C 219.827 471.052 223.791 472.351 225.578 472.676 L 238.57 476.086 L 254.811 480.471 C 258.384 481.283 266.829 483.882 273.488 486.155 C 280.147 488.429 288.267 491.352 291.353 492.652 C 294.438 493.951 303.208 497.849 310.842 501.422 L 327.082 509.217 C 328.381 510.029 335.69 513.927 343.323 517.825 C 350.956 521.885 364.761 530.005 374.18 535.69 C 383.6 541.374 394.643 548.52 399.028 551.605 L 418.517 566.06 C 424.851 570.769 436.869 580.351 444.827 587.335 C 452.785 594.318 466.915 607.636 476.009 616.893 C 485.104 625.988 495.173 636.869 498.584 640.929 C 501.832 644.989 519.723 665.609 522.809 670.481 C 525.732 675.353 530.903 681.369 533.501 683.967 C 536.1 686.566 546.656 696.148 552.016 700.045 C 557.375 703.943 566.632 712.388 572.804 718.722 C 578.813 725.056 587.258 735.613 591.481 741.946 C 595.703 748.443 601.875 759.649 605.123 766.795 C 608.371 773.941 613.406 787.258 616.329 796.353 L 621.851 813.081 L 692.498 813.081 C 691.361 799.926 690.224 791.968 689.25 787.096 C 688.438 782.223 686.814 774.428 685.839 770.043 L 682.753 753.802 C 681.941 749.255 680.48 741.946 679.505 737.561 C 678.693 733.014 657.379 626.506 656.567 622.121 C 655.917 617.574 643.673 633.079 637.421 637.222 C 615.786 651.557 601.875 642.344 594.108 639.305 C 589.913 637.663 578.488 632.322 573.129 628.262 C 567.769 624.201 530.253 589.933 519.534 580.027 L 498.421 560.375 C 497.447 559.401 477.796 541.861 454.572 521.235 C 428.911 498.661 410.235 480.796 406.986 475.924 C 404.063 471.539 400.815 465.043 399.84 461.47 C 398.866 457.897 398.054 450.264 398.054 444.417 C 398.054 438.57 399.353 429.8 400.977 424.928 C 402.601 420.056 406.012 411.286 408.61 405.439 C 411.209 399.593 418.355 384.814 424.202 372.633 L 435.083 350.383 C 426.313 350.708 420.466 351.033 416.406 351.358 Z" style="stroke-width: 1;"></path>
  <path d="M 209.662 479.822 C 204.952 486.643 197.319 499.96 192.772 509.38 C 188.224 518.799 188.068 517.224 185.548 524.019 C 183.027 530.814 179.781 535.906 177.181 549.981 C 174.58 564.057 175.232 562.649 173.77 571.094 C 172.308 580.351 171.172 595.943 171.334 610.072 C 171.334 623.065 172.146 639.63 173.283 646.938 C 174.42 654.247 176.044 661.068 176.856 662.205 C 177.668 663.179 179.454 663.504 180.429 663.017 C 182.053 662.367 182.54 654.247 182.54 631.51 C 182.54 611.858 183.514 596.592 184.976 588.147 C 186.275 581.001 188.062 572.556 188.711 569.47 C 189.524 566.384 192.284 559.076 194.721 553.23 C 197.157 547.383 200.242 541.374 201.704 539.75 C 203.653 537.801 204.952 537.476 206.089 538.613 C 207.226 539.75 207.713 587.66 207.713 675.522 L 207.713 810.645 L 280.471 810.645 C 288.592 785.471 294.276 771.504 298.336 763.546 C 302.234 755.426 306.619 747.793 307.918 746.494 C 309.217 745.195 312.466 740.81 315.226 736.749 C 317.987 732.689 325.296 724.569 331.792 718.397 C 338.126 712.388 349.007 703.781 355.991 699.071 C 362.812 694.524 372.881 688.677 378.24 686.241 C 383.6 683.805 393.831 680.069 400.977 677.796 C 408.123 675.522 419.167 672.761 425.338 671.624 C 431.835 670.325 446.776 669.513 460.256 669.513 C 473.248 669.513 487.865 670.487 492.737 671.624 C 497.609 672.761 503.456 674.223 505.73 675.035 L 517.098 678.445 C 521.158 679.582 535.635 684.227 540.508 686.988 C 540.508 686.988 529.116 675.522 526.031 670.163 C 522.945 664.803 503.456 643.365 500.208 639.305 C 496.797 635.245 486.728 624.364 477.633 615.269 C 468.539 606.012 454.409 592.694 446.451 585.711 C 438.493 578.727 426.475 569.145 420.141 564.436 L 400.653 549.981 C 396.268 546.896 385.224 539.75 375.804 534.066 C 366.385 528.381 352.58 520.261 344.947 516.201 C 337.314 512.303 330.006 508.405 328.706 507.593 C 327.407 506.944 320.099 503.371 312.466 499.798 L 292.977 491.028 C 289.891 489.728 281.771 486.805 275.112 484.531 C 268.453 482.258 260.008 479.659 256.435 478.847 L 240.194 474.462 L 227.202 471.052 C 225.415 470.727 224.517 469.285 223.705 468.473 C 222.893 467.498 222.97 462.876 222.32 462.876 C 221.67 462.876 214.534 472.838 209.662 479.659 L 209.662 479.822 Z" fill="#6e2b9e" style="stroke-width: 1;"></path>
  <path d="M 819.662 693.387 L 819.987 744.058 C 812.841 757.862 808.944 764.034 806.507 766.47 C 804.071 768.906 799.037 772.316 795.139 774.103 C 791.404 775.889 786.369 777.351 783.77 777.351 C 781.334 777.351 776.787 776.377 773.701 775.24 C 770.615 774.103 766.393 772.316 764.282 771.18 C 762.333 770.043 760.546 769.231 760.221 769.231 C 760.059 769.231 759.247 774.428 758.435 780.924 C 757.623 787.42 756.811 795.541 756.811 799.114 C 756.649 805.123 756.973 805.447 764.769 808.696 C 771.103 811.294 776.625 812.106 789.292 812.106 C 805.208 812.269 805.858 812.106 819.338 805.61 C 828.92 800.738 835.091 796.515 839.963 790.993 C 843.861 786.608 849.383 778.65 852.306 773.291 C 855.23 767.931 858.64 760.461 859.939 756.563 C 861.726 750.879 861.888 748.93 860.102 746.331 C 859.127 744.707 858.153 740.81 858.153 737.886 C 858.153 735.125 857.503 730.091 856.529 727.005 L 852.631 711.576 C 851.332 706.217 847.921 696.31 845.16 689.651 C 842.399 682.993 835.903 669.675 830.706 659.931 C 825.671 650.349 819.909 630.344 819.422 630.344 C 818.772 630.344 819.5 665.453 819.662 693.224 L 819.662 693.387 Z" fill="#2688c9" style="stroke-width: 1;"></path>
  <path d="M 368.496 719.209 C 361.35 723.757 349.657 733.501 342.511 740.647 C 335.203 747.955 325.945 759.162 321.723 765.658 C 317.5 771.992 314.09 778.65 314.09 780.274 C 314.09 781.736 315.714 789.694 317.5 797.652 C 319.449 805.772 321.885 813.243 322.86 814.38 C 324.159 816.004 332.442 816.491 357.127 816.491 C 380.676 816.329 390.421 815.842 392.532 814.38 C 395.293 812.431 395.293 811.132 393.019 789.532 L 388.797 745.682 L 386.523 717.748 C 386.361 713.038 385.386 710.764 383.762 710.764 C 382.463 710.764 375.642 714.5 368.496 719.209 Z" fill="#4e207a" style="stroke-width: 1;"></path>
</svg>